TITLE ""
FILE "1Q_t_0829-0838.mp3" MP3
  TRACK 01 AUDIO
    TITLE "1Q_t_0829-0838_01"
    INDEX 01 00:00:00
  TRACK 02 AUDIO
    TITLE "1Q_t_0829-0838_02"
    INDEX 01 00:00:73
  TRACK 03 AUDIO
    TITLE "1Q_t_0829-0838_03"
    INDEX 01 00:01:22
  TRACK 04 AUDIO
    TITLE "1Q_t_0829-0838_04"
    INDEX 01 00:03:52
  TRACK 05 AUDIO
    TITLE "1Q_t_0829-0838_05"
    INDEX 01 00:03:60
  TRACK 06 AUDIO
    TITLE "1Q_t_0829-0838_06"
    INDEX 01 00:09:31
  TRACK 07 AUDIO
    TITLE "1Q_t_0829-0838_07"
    INDEX 01 00:10:03
  TRACK 08 AUDIO
    TITLE "1Q_t_0829-0838_08"
    INDEX 01 00:11:20
  TRACK 09 AUDIO
    TITLE "1Q_t_0829-0838_09"
    INDEX 01 00:11:30
  TRACK 10 AUDIO
    TITLE "1Q_t_0829-0838_10"
    INDEX 01 00:14:38
  TRACK 11 AUDIO
    TITLE "1Q_t_0829-0838_11"
    INDEX 01 00:14:44
  TRACK 12 AUDIO
    TITLE "1Q_t_0829-0838_12"
    INDEX 01 00:21:34
  TRACK 13 AUDIO
    TITLE "1Q_t_0829-0838_13"
    INDEX 01 00:22:04
  TRACK 14 AUDIO
    TITLE "1Q_t_0829-0838_14"
    INDEX 01 00:23:09
  TRACK 15 AUDIO
    TITLE "1Q_t_0829-0838_15"
    INDEX 01 00:23:19
  TRACK 16 AUDIO
    TITLE "1Q_t_0829-0838_16"
    INDEX 01 00:24:50
  TRACK 17 AUDIO
    TITLE "1Q_t_0829-0838_17"
    INDEX 01 00:24:60
  TRACK 18 AUDIO
    TITLE "1Q_t_0829-0838_18"
    INDEX 01 00:28:75
  TRACK 19 AUDIO
    TITLE "1Q_t_0829-0838_19"
    INDEX 01 00:29:41
  TRACK 20 AUDIO
    TITLE "1Q_t_0829-0838_20"
    INDEX 01 00:30:56
  TRACK 21 AUDIO
    TITLE "1Q_t_0829-0838_21"
    INDEX 01 00:30:70
  TRACK 22 AUDIO
    TITLE "1Q_t_0829-0838_22"
    INDEX 01 00:32:01
  TRACK 23 AUDIO
    TITLE "1Q_t_0829-0838_23"
    INDEX 01 00:32:04
  TRACK 24 AUDIO
    TITLE "1Q_t_0829-0838_24"
    INDEX 01 00:37:45
  TRACK 25 AUDIO
    TITLE "1Q_t_0829-0838_25"
    INDEX 01 00:38:15
  TRACK 26 AUDIO
    TITLE "1Q_t_0829-0838_26"
    INDEX 01 00:39:32
  TRACK 27 AUDIO
    TITLE "1Q_t_0829-0838_27"
    INDEX 01 00:39:38
  TRACK 28 AUDIO
    TITLE "1Q_t_0829-0838_28"
    INDEX 01 00:42:30
  TRACK 29 AUDIO
    TITLE "1Q_t_0829-0838_29"
    INDEX 01 00:42:38
  TRACK 30 AUDIO
    TITLE "1Q_t_0829-0838_30"
    INDEX 01 00:48:11
  TRACK 31 AUDIO
    TITLE "1Q_t_0829-0838_31"
    INDEX 01 00:48:56
  TRACK 32 AUDIO
    TITLE "1Q_t_0829-0838_32"
    INDEX 01 00:49:62
  TRACK 33 AUDIO
    TITLE "1Q_t_0829-0838_33"
    INDEX 01 00:49:70
  TRACK 34 AUDIO
    TITLE "1Q_t_0829-0838_34"
    INDEX 01 00:50:69
  TRACK 35 AUDIO
    TITLE "1Q_t_0829-0838_35"
    INDEX 01 00:50:75
  TRACK 36 AUDIO
    TITLE "1Q_t_0829-0838_36"
    INDEX 01 00:56:01
  TRACK 37 AUDIO
    TITLE "1Q_t_0829-0838_37"
    INDEX 01 00:56:48
  TRACK 38 AUDIO
    TITLE "1Q_t_0829-0838_38"
    INDEX 01 00:57:69
  TRACK 39 AUDIO
    TITLE "1Q_t_0829-0838_39"
    INDEX 01 00:58:04
  TRACK 40 AUDIO
    TITLE "1Q_t_0829-0838_40"
    INDEX 01 01:00:44
  TRACK 41 AUDIO
    TITLE "1Q_t_0829-0838_41"
    INDEX 01 01:00:50
  TRACK 42 AUDIO
    TITLE "1Q_t_0829-0838_42"
    INDEX 01 01:06:35
  TRACK 43 AUDIO
    TITLE "1Q_t_0829-0838_43"
    INDEX 01 01:07:05
  TRACK 44 AUDIO
    TITLE "1Q_t_0829-0838_44"
    INDEX 01 01:08:20
  TRACK 45 AUDIO
    TITLE "1Q_t_0829-0838_45"
    INDEX 01 01:08:32
  TRACK 46 AUDIO
    TITLE "1Q_t_0829-0838_46"
    INDEX 01 01:09:51
  TRACK 47 AUDIO
    TITLE "1Q_t_0829-0838_47"
    INDEX 01 01:09:57
  TRACK 48 AUDIO
    TITLE "1Q_t_0829-0838_48"
    INDEX 01 01:17:07
  TRACK 49 AUDIO
    TITLE "1Q_t_0829-0838_49"
    INDEX 01 01:17:54
  TRACK 50 AUDIO
    TITLE "1Q_t_0829-0838_50"
    INDEX 01 01:18:69
  TRACK 51 AUDIO
    TITLE "1Q_t_0829-0838_51"
    INDEX 01 01:19:04
  TRACK 52 AUDIO
    TITLE "1Q_t_0829-0838_52"
    INDEX 01 01:20:13
  TRACK 53 AUDIO
    TITLE "1Q_t_0829-0838_53"
    INDEX 01 01:20:21
  TRACK 54 AUDIO
    TITLE "1Q_t_0829-0838_54"
    INDEX 01 01:26:16
  TRACK 55 AUDIO
    TITLE "1Q_t_0829-0838_55"
    INDEX 01 01:26:67
  TRACK 56 AUDIO
    TITLE "1Q_t_0829-0838_56"
    INDEX 01 01:28:23
  TRACK 57 AUDIO
    TITLE "1Q_t_0829-0838_57"
    INDEX 01 01:28:30
  TRACK 58 AUDIO
    TITLE "1Q_t_0829-0838_58"
    INDEX 01 01:29:51
  TRACK 59 AUDIO
    TITLE "1Q_t_0829-0838_59"
    INDEX 01 01:29:59
  TRACK 60 AUDIO
    TITLE "1Q_t_0829-0838_60"
    INDEX 01 01:36:12
